<?xml version="1.0" encoding="utf-8"?>
<!-- Generator: Adobe Illustrator 19.0.0, SVG Export Plug-In . SVG Version: 6.00 Build 0)  -->
<svg version="1.1" id="Layer_1" xmlns="http://www.w3.org/2000/svg" xmlns:xlink="http://www.w3.org/1999/xlink" x="0px" y="0px"
	 viewBox="-286 410.9 22 20" style="enable-background:new -286 410.9 22 20;" xml:space="preserve">
<style type="text/css">
	.st0{fill:#FFFFFF;}
</style>
<path class="st0" d="M-264.9,414.5H-282l-0.3-2.8c0-0.5-0.4-0.8-0.9-0.8h-1.8c-0.5,0-0.9,0.4-0.9,0.9s0.4,0.9,0.9,0.9h1l1,11.5
	c0.1,0.8,0.5,1.7,1.3,2.3c-1.4,1.8-0.1,4.4,2.1,4.4c1.9,0,3.2-1.9,2.6-3.6h4.9c-0.6,1.8,0.7,3.6,2.6,3.6c1.5,0,2.7-1.2,2.7-2.7
	s-1.2-2.7-2.7-2.7h-10c-0.7,0-1.3-0.4-1.5-1l14.3-0.8c0.4,0,0.7-0.3,0.8-0.7l1.8-7.3C-264,415.2-264.3,414.7-264.9,414.5
	C-264.7,414.5-264.8,414.5-264.9,414.5L-264.9,414.5z M-279.4,429.1c-0.5,0-0.9-0.5-0.9-1s0.4-0.9,0.9-0.9s0.9,0.5,0.9,1
	C-278.6,428.7-279,429.1-279.4,429.1z M-269.4,429.1c-0.5,0-0.9-0.5-0.9-1s0.4-0.9,0.9-0.9s0.9,0.5,0.9,1
	C-268.6,428.7-268.9,429.1-269.4,429.1z M-267.4,421.9l-13.8,0.8l-0.6-6.3h15.8L-267.4,421.9L-267.4,421.9z"/>
</svg>
